<?xml version="1.0" encoding="utf-8"?>
<!-- Generator: Adobe Illustrator 16.0.0, SVG Export Plug-In . SVG Version: 6.00 Build 0)  -->
<!DOCTYPE svg PUBLIC "-//W3C//DTD SVG 1.1//EN" "http://www.w3.org/Graphics/SVG/1.1/DTD/svg11.dtd">
<svg version="1.1" id="Layer_1" xmlns="http://www.w3.org/2000/svg" xmlns:xlink="http://www.w3.org/1999/xlink" x="0px" y="0px"
	 width="444.1px" height="183px" viewBox="0 0 444.1 183" enable-background="new 0 0 444.1 183" xml:space="preserve">
<g>
	<path fill="#F1F2F2" d="M5.668,180.179c-1.504,0-2.725-1.222-2.725-2.725V91.488c0-1.503,1.221-2.726,2.725-2.726h43.331
		c8.828,0,16.094,2.441,21.593,7.257c5.603,4.904,8.445,11.429,8.445,19.387c0,9.181-3.212,16.038-9.549,20.377
		c-0.229,0.158-0.459,0.31-0.697,0.461c4.698,3.493,7.179,8.843,7.38,15.928l0.409,14.09c0.09,3.331,0.486,4.58,0.652,4.96
		c0.242,0.559,0.77,1.029,1.615,1.442c0.938,0.456,1.531,1.405,1.531,2.45v2.28c0,1.504-1.217,2.726-2.725,2.726H57.82
		c-1.018,0-1.945-0.563-2.418-1.463c-0.436-0.834-1.002-2.347-1.518-6.7c-0.363-3.032-0.563-6.326-0.605-9.794l-0.116-7.946
		c-0.059-2.979-0.817-4.981-2.318-6.097c-1.177-0.875-3.751-1.918-9.328-1.918h-15.17v31.252c0,1.503-1.222,2.725-2.726,2.725H5.668
		z M44.441,126.308c3.975,0,6.903-0.749,8.715-2.224c1.666-1.356,2.474-3.467,2.474-6.455c0-2.972-0.77-5.08-2.354-6.44
		c-1.683-1.442-4.419-2.177-8.135-2.177H26.347v17.296H44.441z"/>
	<path fill="#F1F2F2" d="M129.584,180.179c-13.363,0-24.172-4.369-32.121-12.981c-7.89-8.553-11.892-20.191-11.892-34.598
		c0-14.666,3.995-26.524,11.871-35.246c7.952-8.804,18.764-13.269,32.142-13.269c13.455,0,24.299,4.465,32.229,13.271
		c7.855,8.723,11.837,20.58,11.837,35.244c0,14.405-3.988,26.042-11.857,34.594C153.865,175.81,143.025,180.179,129.584,180.179z
		 M129.584,104.802c-6.454,0-11.354,2.291-14.972,7.004c-3.739,4.867-5.637,11.823-5.637,20.679c0,8.648,1.88,15.433,5.589,20.157
		c3.602,4.592,8.514,6.824,15.02,6.824c6.508,0,11.43-2.236,15.053-6.828c3.723-4.727,5.609-11.506,5.609-20.153
		c0-8.855-1.894-15.812-5.631-20.679C140.994,107.093,136.078,104.802,129.584,104.802z"/>
	<g>
		<path fill="#1DED87" d="M303.596,120.373c-6.594,5.325-14.607,8.676-23.013,9.757c-17.708,2.279-46.759-0.556-43.681-44.78
			c4.702-67.516-3.314-82.528-3.314-82.528s41.832-0.521,73.351,68.563C320.182,100.416,313.466,112.402,303.596,120.373z"/>
		<path fill="#02C961" d="M239.412,109.854c7.28,20.737,27.565,22.027,41.171,20.276c8.404-1.081,16.419-4.432,23.013-9.757
			c9.87-7.971,16.586-19.957,3.343-48.988C275.42,2.301,233.588,2.821,233.588,2.821S342.227,118.423,239.412,109.854z"/>
		<g>
			<path fill="#0FEA76" d="M338.752,148.382c-4.843-2.462-8.898-6.271-11.734-10.902c-5.972-9.756-11.925-27.484,14.74-37.272
				c40.709-14.938,47.387-23.558,47.387-23.558s11.262,24.323-20.873,60.851C354.768,152.851,345.998,152.063,338.752,148.382z"/>
			<path fill="#02C961" d="M325.047,133.894c0.629,1.281,1.297,2.487,1.971,3.586c2.836,4.631,6.892,8.44,11.734,10.9
				c7.246,3.684,16.016,4.471,29.52-10.88c32.135-36.527,20.873-60.851,20.873-60.851S379.641,135.609,325.047,133.894z"/>
		</g>
		<g>
			<path fill="#F1F2F2" d="M345.316,120.313c-11.361,8.812-22.45,8.817-30.837,9.691c-2.052-2.472-4.36-4.895-6.966-7.225
				c-18.49-16.518-32.333-40.887-35.859-56.911c-0.236-1.078-1.799-0.999-1.887,0.104c-0.948,12.107,0.16,37.619,20.908,62.506
				c16.941,20.321-2.041,51.701-2.041,51.701h41.497c0,0,2.325-18.944-7.884-38.5c9.982-3.473,18.92-13.018,24.43-20.018
				C347.388,120.758,346.228,119.607,345.316,120.313z"/>
			<path fill="#018E68" d="M345.316,120.313l-1.657,1.215c-0.541,0.421-1.137,0.763-1.707,1.144
				c-0.568,0.383-1.154,0.738-1.758,1.063c-0.599,0.331-1.184,0.69-1.808,0.977c-0.619,0.293-1.221,0.624-1.854,0.886
				c-0.633,0.263-1.258,0.544-1.897,0.79l-1.936,0.695l-1.967,0.6l-1.992,0.509l-2.013,0.425c-1.349,0.249-2.702,0.466-4.063,0.637
				c-2.72,0.348-5.454,0.55-8.177,0.833l-0.041,0.004l-0.03-0.033l-2.121-2.362l-1.061-1.182c-0.366-0.381-0.76-0.736-1.138-1.106
				c-1.522-1.467-3.053-2.936-4.615-4.369c-1.577-1.415-3.039-2.958-4.548-4.452c-0.738-0.763-1.443-1.556-2.166-2.332
				c-0.723-0.777-1.443-1.558-2.121-2.374c-2.813-3.183-5.382-6.567-7.896-9.99c-2.435-3.479-4.79-7.019-6.919-10.699
				c-2.117-3.683-4.126-7.437-5.854-11.329c-1.723-3.891-3.248-7.882-4.349-12.016l-0.402-1.553l-0.05-0.194L271.153,66
				c-0.01-0.036,0.045,0.14,0.013,0.043l-0.02-0.045l-0.077-0.183l-0.039-0.092c-0.013-0.004-0.023,0.001-0.031,0.001
				c-0.006,0.013-0.146-0.106-0.27-0.086c-0.065-0.03-0.119,0.033-0.184,0.023c-0.043,0.038-0.102,0.053-0.134,0.094
				c-0.067,0.098-0.093,0.139-0.117,0.385l-0.088,1.587c-0.071,1.062-0.058,2.101-0.092,3.152l0.037,3.155
				c0.136,4.207,0.611,8.4,1.361,12.538c0.756,4.136,1.775,8.23,3.164,12.201c0.623,2.011,1.464,3.941,2.226,5.9
				c0.393,0.976,0.87,1.914,1.301,2.873c0.455,0.947,0.85,1.925,1.371,2.84c1.006,1.846,1.93,3.738,3.075,5.504l1.646,2.691
				c0.582,0.875,1.197,1.729,1.794,2.595c2.303,3.529,5.226,6.549,7.58,10.235c0.312,0.457,0.574,0.934,0.821,1.416
				c0.251,0.481,0.521,0.954,0.755,1.443c0.426,0.998,0.901,1.978,1.225,3.014c0.745,2.039,1.218,4.165,1.528,6.302
				c0.619,4.282,0.446,8.631-0.201,12.867c-0.663,4.24-1.791,8.391-3.262,12.402c-1.493,4.01-3.256,7.893-5.427,11.61l-0.475-0.842
				l41.497,0.264l-0.289,0.256c0.178-1.623,0.233-3.284,0.257-4.933c-0.012-0.825,0-1.652-0.033-2.478
				c-0.042-0.825-0.046-1.653-0.118-2.477c-0.068-0.823-0.103-1.65-0.198-2.472l-0.275-2.466l-0.364-2.454
				c-0.124-0.817-0.302-1.626-0.45-2.44c-0.143-0.815-0.325-1.622-0.524-2.425c-0.2-0.804-0.364-1.616-0.593-2.411l-0.688-2.386
				c-0.214-0.801-0.522-1.57-0.785-2.355c-0.284-0.776-0.521-1.573-0.845-2.335l-0.946-2.296c-0.622-1.535-1.41-2.996-2.106-4.498
				l-0.041-0.087l0.089-0.035c0.673-0.264,1.354-0.508,2.019-0.789c0.653-0.311,1.322-0.588,1.962-0.926
				c0.632-0.35,1.288-0.66,1.901-1.044c0.614-0.382,1.252-0.728,1.844-1.145c0.598-0.407,1.212-0.793,1.787-1.232
				c0.583-0.431,1.174-0.848,1.733-1.309c1.141-0.893,2.247-1.829,3.316-2.805c2.148-1.945,4.175-4.021,6.104-6.184
				c0.966-1.081,1.902-2.188,2.821-3.309l0.681-0.847c0.209-0.279,0.508-0.562,0.489-0.938c0.002-0.356-0.214-0.702-0.536-0.872
				C346.005,120.036,345.619,120.111,345.316,120.313z M345.316,120.313c0.302-0.202,0.688-0.28,1.027-0.118
				c0.325,0.169,0.546,0.516,0.545,0.878c0.02,0.383-0.279,0.665-0.487,0.946l-0.677,0.851c-0.913,1.126-1.845,2.237-2.806,3.323
				c-1.92,2.173-3.938,4.261-6.078,6.219c-1.066,0.982-2.17,1.926-3.308,2.826c-0.559,0.464-1.149,0.886-1.73,1.319
				c-0.575,0.444-1.188,0.833-1.786,1.245c-0.592,0.421-1.229,0.771-1.844,1.157c-0.614,0.389-1.271,0.703-1.904,1.058
				c-0.64,0.343-1.312,0.625-1.966,0.94c-0.667,0.285-1.351,0.534-2.026,0.803l0.048-0.121c0.707,1.502,1.504,2.963,2.136,4.5
				l0.96,2.298c0.329,0.763,0.569,1.56,0.859,2.338c0.268,0.786,0.58,1.557,0.799,2.359l0.722,2.385
				c0.239,0.795,0.415,1.608,0.626,2.412c0.21,0.804,0.403,1.611,0.557,2.429c0.159,0.815,0.349,1.625,0.483,2.445l0.397,2.462
				l0.309,2.475c0.106,0.825,0.151,1.656,0.23,2.483c0.084,0.828,0.099,1.661,0.15,2.491c0.044,0.831,0.044,1.663,0.066,2.495
				c-0.004,1.668-0.037,3.326-0.198,5.003l-0.024,0.254l-0.265,0.002l-41.497,0.264l-0.955,0.006l0.48-0.848
				c2.061-3.63,3.768-7.52,5.185-11.468c1.427-3.953,2.511-8.03,3.138-12.17c0.611-4.137,0.754-8.354,0.138-12.468
				c-0.31-2.052-0.771-4.085-1.493-6.026c-0.312-0.988-0.772-1.917-1.18-2.866c-0.226-0.465-0.485-0.913-0.727-1.37
				c-0.237-0.46-0.489-0.91-0.778-1.328c-2.214-3.463-5.264-6.577-7.568-10.175c-0.602-0.883-1.222-1.753-1.808-2.645l-1.659-2.742
				c-1.153-1.8-2.085-3.727-3.097-5.607c-0.524-0.932-0.921-1.927-1.378-2.892c-0.434-0.977-0.913-1.933-1.308-2.925
				c-0.766-1.994-1.607-3.96-2.231-6.006c-1.39-4.04-2.405-8.203-3.151-12.406c-0.753-4.203-1.183-8.465-1.262-12.734l0.003-3.203
				c0.047-1.067,0.05-2.149,0.133-3.202l0.108-1.586c-0.006-0.101,0.051-0.353,0.107-0.534c0.033-0.199,0.197-0.366,0.324-0.532
				c0.143-0.15,0.341-0.251,0.522-0.338c0.196-0.038,0.396-0.121,0.597-0.083c0.203,0.012,0.4,0.045,0.584,0.15
				c0.184,0.063,0.37,0.235,0.524,0.436l0.105,0.144l0.037,0.092l0.075,0.184l0.019,0.046c-0.019-0.066,0.046,0.141,0.045,0.137
				l0.023,0.096l0.047,0.191l0.375,1.529c1.03,4.074,2.489,8.045,4.148,11.924c1.665,3.881,3.614,7.637,5.674,11.328
				c2.071,3.688,4.372,7.24,6.753,10.737c2.461,3.439,4.979,6.847,7.743,10.055c0.666,0.823,1.374,1.609,2.085,2.394
				c0.711,0.783,1.405,1.584,2.131,2.353c1.486,1.506,2.914,3.07,4.491,4.489c1.555,1.44,3.075,2.914,4.599,4.396
				c0.377,0.372,0.77,0.73,1.135,1.115l1.058,1.189l2.115,2.379l-0.071-0.029c2.729-0.27,5.462-0.457,8.18-0.792
				c1.358-0.164,2.711-0.373,4.059-0.615l2.011-0.414l1.991-0.498l1.966-0.589l1.937-0.685c0.64-0.242,1.265-0.521,1.898-0.78
				c0.634-0.258,1.237-0.585,1.857-0.875c0.624-0.282,1.21-0.639,1.811-0.968c0.604-0.321,1.191-0.674,1.762-1.054
				c0.571-0.377,1.169-0.716,1.712-1.134L345.316,120.313z"/>
		</g>
		<path fill="#1DEE88" d="M307.132,54.896c0.326-9.852,4.478-22.763,17.386-43.853c0,0,1.533,10.713,6.636,19.643
			c2.391,4.186,6.352,15.654,5.357,26.156c-0.767,8.128-8.27,20.687-14.544,21.294C313.904,78.917,306.783,65.387,307.132,54.896z"
			/>
		<path fill="#02C961" d="M360.639,86.542c6.559-7.361,12.453-19.573,17.65-43.751c0,0-8.497,6.704-18.351,9.654
			c-4.618,1.381-15.396,6.954-21.916,15.243c-5.609,7.129-7.245,19.221-2.024,23.903C341.523,96.546,354.257,93.703,360.639,86.542z
			"/>
	</g>
	<path fill="#F1F2F2" d="M243.055,126.255c0.23,1.958,0.35,4.035,0.35,6.229c0,8.647-1.888,15.427-5.613,20.153
		c-3.619,4.592-8.545,6.828-15.053,6.828c-6.506,0-11.419-2.232-15.021-6.824c-3.704-4.727-5.588-11.509-5.588-20.157
		c0-8.855,1.897-15.812,5.637-20.679c3.623-4.713,8.518-7.004,14.973-7.004c4.181,0,7.699,0.963,10.646,2.896
		c-1.031-5.187-1.405-11.311-0.9-18.565c0.1-1.409,0.183-2.762,0.271-4.125c-3.157-0.608-6.495-0.923-10.017-0.923
		c-13.378,0-24.19,4.465-32.139,13.269c-7.876,8.723-11.874,20.582-11.874,35.246c0,14.405,4.001,26.045,11.892,34.598
		c7.952,8.612,18.757,12.981,32.121,12.981c13.445,0,24.279-4.369,32.209-12.985c7.528-8.177,11.463-19.201,11.798-32.737
		C258.584,134.308,249.743,132.363,243.055,126.255z"/>
	<g>
		<path fill="#F1F2F2" d="M390.93,107.443c0.229-0.227,0.428-0.468,0.693-0.675c2.07-1.618,5.105-2.436,9.018-2.436
			c4.641,0,8.41,1.031,11.191,3.07c2.619,1.918,4.016,4.45,4.265,7.743c0.107,1.42,1.294,2.52,2.722,2.52h17.484
			c0.759,0,1.486-0.317,2.001-0.876c0.517-0.556,0.776-1.305,0.718-2.06c-0.718-9.335-4.43-16.873-11.022-22.406
			c-6.518-5.467-15.015-8.239-25.251-8.239c-3.135,0-6.076,0.248-8.862,0.69C394.52,89.809,394.395,97.563,390.93,107.443z"/>
		<path fill="#F1F2F2" d="M433.895,131.596c-4.603-4.004-13.199-7.376-26.285-10.312c-10.384-2.303-14.545-3.835-16.225-4.725
			c-2.277-1.189-2.57-2.521-2.57-3.551c0-0.11,0.024-0.199,0.027-0.307c-2.791,6.301-6.934,13.322-12.968,20.943
			c5.233,3.403,14.068,6.468,26.923,9.336c8.766,1.939,12.213,3.428,13.586,4.354c0.966,0.631,2.249,1.825,2.249,4.854
			c0,1.432-0.359,3.544-3.456,5.328c-2.781,1.604-6.838,2.414-12.059,2.414c-4.919,0-8.738-1.042-11.35-3.099
			c-2.484-1.957-3.771-4.74-3.929-8.5c-0.063-1.459-1.267-2.612-2.724-2.612h-17.314c-0.744,0-1.459,0.304-1.969,0.843
			c-0.515,0.54-0.787,1.266-0.753,2.011c0.463,10.039,4.103,17.926,10.812,23.44c6.592,5.416,15.75,8.164,27.227,8.164
			c11.385,0,20.607-2.57,27.414-7.646c7.051-5.257,10.625-12.457,10.625-21.396C441.156,142.316,438.71,135.739,433.895,131.596z"/>
	</g>
</g>
<g>
</g>
<g>
</g>
<g>
</g>
<g>
</g>
<g>
</g>
<g>
</g>
</svg>
