<?xml version="1.0"?>
<svg xmlns="http://www.w3.org/2000/svg" xmlns:xlink="http://www.w3.org/1999/xlink" xmlns:svgjs="http://svgjs.com/svgjs" version="1.1" width="512" height="512" x="0" y="0" viewBox="0 0 512 512" style="enable-background:new 0 0 512 512" xml:space="preserve" class=""><g><g xmlns="http://www.w3.org/2000/svg"><g><path d="m503.729 422.444c-1.504-5.764-7.949-8.994-13.473-6.727-25.58 10.499-55.31.333-69.157-23.647-13.865-23.996-7.792-54.816 14.126-71.689 4.721-3.635 5.175-10.828.939-15.026-31.302-31.027-70.229-53.545-112.57-65.12-2.784-.761-5.764-.281-8.17 1.317s-4.003 4.158-4.38 7.021c-1.672 12.673-7.675 24.199-16.728 32.826-.104-1.136-.206-2.24-.304-3.294-1.185-12.781-1.786-25.76-1.786-38.577v-89.105h32.458c3.608 0 6.937-1.944 8.709-5.086l29.618-52.499c25.019 2.138 44.525 17.509 44.715 17.66 1.779 1.438 3.998 2.222 6.285 2.222h38.655c3.288 0 6.366-1.616 8.232-4.323s2.283-6.158 1.115-9.231c-24.8-65.227-100.099-83.386-103.292-84.127-.741-.172-1.5-.259-2.261-.259h-69.174c-5.523 0-10 4.477-10 10s4.477 10 10 10h67.929c7.76 2.058 57.759 16.722 81.646 57.94h-19.548c-8.042-5.677-31.329-20.128-60.001-20.128-3.608 0-6.937 1.944-8.709 5.086l-29.756 52.745h-112.148v-105.647c0-5.523-4.477-10-10-10-5.485 0-9.991 4.572-10.002 10.039-.021 11.301-9.22 20.489-20.525 20.489-11.313 0-20.517-9.208-20.517-20.527 0-5.523-4.477-10-10-10 0 0-.001 0-.002 0 0 0-.001 0-.002 0h-51.293c-5.523 0-10 4.477-10 10v115.639c0 5.523 4.477 10 10 10h51.209c.029 0 .058.004.087.004 5.523 0 10-4.477 10-10 0-11.319 9.204-20.527 20.517-20.527 11.306 0 20.504 9.188 20.525 20.489v.042c0 5.523 4.477 10 10 10h23.077v89.105c0 12.817-.601 25.797-1.786 38.578-.098 1.055-.2 2.162-.304 3.3-9.06-8.633-15.067-20.162-16.738-32.832-.377-2.864-1.975-5.424-4.38-7.022s-5.384-2.08-8.17-1.317c-42.333 11.572-81.255 34.09-112.56 65.12-4.235 4.196-3.783 11.388.936 15.023 21.908 16.881 27.982 47.702 14.129 71.694-13.848 23.98-43.577 34.146-69.155 23.645-5.524-2.267-11.971.962-13.475 6.727-5.487 21.041-8.27 42.833-8.27 64.779 0 5.523 4.477 9.995 10 9.995s10-4.482 10-10.005c0-16.677 1.742-33.258 5.188-49.432 5.766 1.378 11.604 2.047 17.401 2.047 26.333-.002 51.808-13.815 65.631-37.755 16.883-29.238 12.002-65.938-10.638-89.78 24.819-22.49 54.193-39.491 85.939-49.742 5.143 17.505 16.519 32.643 32.061 42.49-1.641 19.155-3.154 38.321-4.504 57.499-.373 5.301-.735 10.603-1.082 15.906-43.371 18.349-72.073 61.246-72.073 108.768v.01c0 5.523 4.477 9.995 10 9.995s10-4.482 10-10.005c0-36.008 19.838-68.811 50.663-85.864-1.711 29.829-2.923 60.07-2.923 85.874 0 5.523 4.477 10 10 10s10-4.477 10-10c0-30.142 1.684-66.507 3.878-101.11.404-5.865.762-11.734 1.168-17.6 2.531-36.586 5.425-69.496 7.194-88.562 1.242-13.392 1.871-26.993 1.871-40.424v-89.105h32.452v89.105c0 13.431.629 27.032 1.871 40.424 1.758 18.952 4.629 51.585 7.148 87.91.421 6.089.804 12.18 1.214 18.27 2.194 34.597 3.877 70.954 3.877 101.091 0 5.523 4.477 10 10 10s10-4.477 10-10c0-25.797-1.211-56.028-2.921-85.848 18.668 10.35 33.718 26.672 42.398 46.417 2.222 5.055 8.123 7.354 13.179 5.13 5.056-2.223 7.353-8.123 5.13-13.179-12.115-27.56-34.539-49.589-62.118-61.282-1.23-18.834-2.635-37.656-4.168-56.468-.461-5.654-.933-11.307-1.417-16.96 15.536-9.837 26.907-24.975 32.051-42.482 31.75 10.251 61.129 27.253 85.946 49.739-22.649 23.838-27.531 60.541-10.635 89.783 16.867 29.209 51.071 43.345 83.032 35.707 3.445 16.174 5.188 32.756 5.188 49.433v.01c0 5.523 4.477 9.995 10 9.995s10-4.482 10-10.005c-.001-21.936-2.784-43.728-8.272-64.77zm-378.079-292.028h-31.292v-95.64h31.292zm40.521-30.523c-7.482 0-14.496 2.038-20.517 5.59v-45.769c6.021 3.552 13.035 5.59 20.517 5.59 7.485 0 14.502-2.04 20.525-5.592v45.773c-6.023-3.553-13.04-5.592-20.525-5.592z" fill="#018e68" data-original="#000000" style="" class=""/><path d="m233.09 28.6c3.432 8.373 15.802 7.893 18.701-.608 2.942-8.628-6.799-16.437-14.603-11.787-4.194 2.499-5.975 7.889-4.098 12.395z" fill="#018e68" data-original="#000000" style="" class=""/><path d="m369.61 478.91c-3.632-2.421-8.513-2.162-11.895.583-3.375 2.739-4.555 7.553-2.895 11.557 3.385 8.166 15.378 8.011 18.558-.23 1.656-4.289.101-9.375-3.768-11.91z" fill="#018e68" data-original="#000000" style="" class=""/></g></g></g></svg>
