<?xml version="1.0"?>
<svg xmlns="http://www.w3.org/2000/svg" xmlns:xlink="http://www.w3.org/1999/xlink" xmlns:svgjs="http://svgjs.com/svgjs" version="1.1" width="512" height="512" x="0" y="0" viewBox="0 0 368 368" style="enable-background:new 0 0 512 512" xml:space="preserve" class=""><g><path xmlns="http://www.w3.org/2000/svg" d="m312 64c-15.847656 0-30.144531 6.648438-40.34375 17.257812-3.464844-45.378906-41.410156-81.257812-87.65625-81.257812s-84.191406 35.878906-87.65625 81.257812c-10.199219-10.609374-24.496094-17.257812-40.34375-17.257812-30.871094 0-56 25.121094-56 56v96c0 28.152344 20.910156 51.457031 48 55.359375v80.640625h-40c-4.425781 0-8 3.574219-8 8s3.574219 8 8 8h352c4.425781 0 8-3.574219 8-8s-3.574219-8-8-8h-40v-80.640625c27.089844-3.902344 48-27.207031 48-55.359375v-96c0-30.878906-25.128906-56-56-56zm-200 24c0-39.695312 32.296875-72 72-72s72 32.304688 72 72v128c0 37-28.054688 67.535156-64 71.527344v-66.582032l27.574219-13.792968c3.953125-1.976563 5.554687-6.785156 3.578125-10.738282-1.976563-3.949218-6.785156-5.535156-10.738282-3.574218l-20.414062 10.214844v-46.109376l27.574219-13.792968c3.953125-1.976563 5.554687-6.785156 3.578125-10.738282-1.976563-3.957031-6.785156-5.550781-10.738282-3.574218l-20.414062 10.214844v-35.054688c0-4.414062-3.574219-8-8-8s-8 3.585938-8 8v35.054688l-20.425781-10.207032c-3.949219-1.976562-8.757813-.375-10.734375 3.578125-1.976563 3.949219-.375 8.757813 3.574218 10.734375l27.585938 13.785156v46.109376l-20.425781-10.207032c-3.949219-1.960937-8.757813-.375-10.734375 3.578125-1.976563 3.949219-.375 8.757813 3.574218 10.734375l27.585938 13.785156v66.582032c-35.945312-3.992188-64-34.527344-64-71.527344zm-96 128v-96c0-22.054688 17.945312-40 40-40s40 17.945312 40 40v96c0 22.054688-17.945312 40-40 40s-40-17.945312-40-40zm48 55.359375c15.726562-2.261719 29.367188-11.046875 38.039062-23.558594 11.855469 30.457031 40.144532 52.726563 73.960938 55.792969v48.40625h-112zm128 80.640625v-48.40625c33.816406-3.066406 62.105469-25.335938 73.960938-55.792969 8.671874 12.519531 22.3125 21.296875 38.039062 23.558594v80.640625zm160-136c0 22.054688-17.945312 40-40 40s-40-17.945312-40-40v-96c0-22.054688 17.945312-40 40-40s40 17.945312 40 40zm0 0" fill="#018e68" data-original="#000000" style="" class=""/></g></svg>
